<svg width="800" height="800" viewBox="0 -48.5 1121 1121" class="icon" xmlns="http://www.w3.org/2000/svg"><path d="M1079.821 473.96c0 294.67-238.875 533.544-533.545 533.544S12.72 768.63 12.72 473.96c0 0 140.416-102.711 275.386 9.75s285.201-7.965 285.201-7.965 132.002-111.177 262.655 0c122.945 104.651 243.86-1.785 243.86-1.785z" fill="#178E3B"/><path d="M560.523 1024A560.125 560.125 0 0 1 0 463.477 26.979 26.979 0 0 1 11.048 441.7c1.62-1.182 40.301-29.15 97.123-41.855 53.328-11.922 133.312-12.475 211.46 52.672 48.626 40.52 105.242 51.632 168.295 33.042 47.328-13.951 80.396-39.491 82.605-41.238 4.304-3.546 40.018-32.117 92.01-46.699 51.387-14.465 128.572-17.985 205.126 47.11 43.114 36.69 90.622 47.97 141.2 33.543a196.185 196.185 0 0 0 67.46-35.085 26.979 26.979 0 0 1 44.733 20.311A560.125 560.125 0 0 1 560.523 1024zM54.163 478.212c7.823 272.534 231.963 491.83 506.36 491.83 262.206 0 478.522-200.244 504.049-455.846a242.807 242.807 0 0 1-38.657 15.275c-47.996 14.234-120.49 18.217-193.23-43.68-46.416-39.504-98.163-51.862-153.79-36.754a217.588 217.588 0 0 0-74.063 36.896l-.436.36c-1.709 1.361-42.395 33.633-101.221 50.976-80.255 23.664-155.666 8.672-218.102-43.332-49.204-40.995-104.767-54.947-165.147-41.445a240.327 240.327 0 0 0-65.763 25.72z" fill="#203529"/><path d="M913.184 447.713a46.647 46.647 0 0 1-11.562-1.4 39.466 39.466 0 0 1-25.861-20.645c-6.09-11.858-4.87-26.593 4.483-54.162 1.285-3.855 2.647-7.567 3.854-10.997-124.615-128.097-155.216-135.69-193.654-145.17-4.548-1.131-9.288-2.3-14.324-3.662a26.979 26.979 0 0 1-19.682 25.694 111.1 111.1 0 0 1-30.087 4.252c-27.57 0-53.816-10.881-76.002-31.911a160.42 160.42 0 0 1-26.195-32.786c-9.905-.552-33.402 1.285-77.454 20.414-11.023 4.792-29.201 12.706-46.043 12.706-11.203 0-21.84-3.495-29.33-13.747-15.262-20.799.578-45.26 5.794-53.301 3.302-5.14 6.783-9.751 9.468-13.156 9.918-41.367 32.85-73.561 68.269-95.748C546.225-23.113 692.949 7.437 721.7 14.207c42.073-3.648 66.804 1.362 79.74 16.072a32.952 32.952 0 0 1 7.914 28.828 26.979 26.979 0 0 1-2.71 7.092c89.144 61.46 146.454 209.7 163.155 257.542 74.705 18.564 113.734 49.769 115.468 51.169a26.979 26.979 0 0 1-16.816 47.919l-87.552.63a26.863 26.863 0 0 1-5.794-.592q-.72.579-1.477 1.105a187.012 187.012 0 0 1-21.84 12.847c-14.646 7.297-27.39 10.894-38.605 10.894zm138.168-30.832zM620.39 138.63a53.225 53.225 0 0 1 9.134.835c8.12 1.413 18.063 4.625 31.295 10.097 16.701 6.938 29.96 10.214 42.703 13.374 22.906 5.678 46.596 11.562 82.22 35.971 30.32 20.877 68.577 54.792 119.014 105.576-23.92-59.096-69.784-154.163-130.087-194.746l-.951-.668c-18.166-13.4-27.75-27.505-28.597-42.06-5.871 0-13.361.397-22.816 1.284a26.979 26.979 0 0 1-9.417-.732c-1.465-.373-149.782-37.719-229.472 12.294-23.124 14.504-37.628 34.867-44.27 62.166 76.272-30.241 108.132-17.574 118.5-10.354a26.002 26.002 0 0 1 9.134 10.868 106.822 106.822 0 0 0 20.722 27.98 29.676 29.676 0 0 1 4.74-17.33c3.636-5.807 11.832-14.555 28.148-14.555zM797.6 58.35z" fill="#203529"/><path d="M533.121 90.505a13.142 13.142 0 1 0 26.285 0 13.142 13.142 0 1 0-26.285 0zM824.515 373.317a13.45 13.45 0 0 1-9.957-4.38c-.694-.759-62.551-66.997-148.035-64.762a13.49 13.49 0 1 1-.706-26.979c98.112-2.569 165.828 70.427 168.667 73.536a13.49 13.49 0 0 1-9.97 22.572zm-248.973 15.095a13.49 13.49 0 0 1-8.107-24.28c64.774-48.575 185.78-12.424 190.892-10.87a13.49 13.49 0 0 1-7.875 25.81c-1.118-.347-113.053-33.71-166.843 6.642a13.425 13.425 0 0 1-8.067 2.698zm492.717-45.028h-.373a13.49 13.49 0 0 1-13.155-13.862c.874-32.117-27.505-96.583-38.54-118.706a13.49 13.49 0 1 1 24.152-12.011c1.734 3.494 42.561 86.074 41.328 131.45a13.49 13.49 0 0 1-13.412 13.129zm-552.584 324.5a270.492 270.492 0 0 1-75.167-11.229c-58.364-16.88-99.744-46.66-101.49-47.919a13.49 13.49 0 0 1 15.852-21.84 336.396 336.396 0 0 0 93.86 44.04c70.568 20.221 131.758 10.11 181.86-30.036 50.913-40.789 115.224-48.356 186.01-21.84a338.644 338.644 0 0 1 90.61 51.619 13.49 13.49 0 1 1-17.356 20.67 316.766 316.766 0 0 0-83.35-47.237c-61.987-23.06-115.495-16.997-159.02 17.857-38.04 30.473-82.747 45.915-131.81 45.915z" fill="#203529"/><path d="M463.4 802.082c-54.046 0-113.746-11.934-153.083-46.351-70.735-61.884-140.468-13.656-143.41-11.562a13.49 13.49 0 0 1-15.724-21.917 150.103 150.103 0 0 1 55.421-22.38c30.332-5.716 76.028-4.188 121.468 35.56 47.328 41.406 131.45 44.965 189.106 35.368 44.258-7.335 70.774-21.711 76.683-31.95a13.49 13.49 0 0 1 23.369 13.476c-16.83 29.163-72.483 41.239-95.633 45.08a359.932 359.932 0 0 1-58.196 4.676z" fill="#2FA65B"/><path d="M849.874 861.217a13.425 13.425 0 0 1-7.13-2.056c-.565-.347-26.708-16.315-64.812-24.525-50.412-10.842-97.097-3.674-138.747 21.313a13.49 13.49 0 1 1-13.875-23.124c47.328-28.392 102.416-36.806 159.302-24.332 42.652 9.353 71.236 27.056 72.43 27.8a13.49 13.49 0 0 1-7.168 24.924z" fill="#203529"/></svg>